<?xml version="1.0" standalone="no"?>
<!DOCTYPE svg PUBLIC "-//W3C//DTD SVG 20010904//EN"
 "http://www.w3.org/TR/2001/REC-SVG-20010904/DTD/svg10.dtd">
<svg version="1.0" xmlns="http://www.w3.org/2000/svg"
 width="640.000000pt" height="612.000000pt" viewBox="0 0 640.000000 612.000000"
 preserveAspectRatio="xMidYMid meet">

<g transform="translate(0.000000,612.000000) scale(0.100000,-0.100000)"
fill="#000000" stroke="none">
<path d="M3090 5879 c-223 -20 -497 -95 -669 -184 -124 -64 -286 -172 -354
-237 -51 -48 -57 -58 -57 -93 1 -49 17 -80 56 -106 56 -37 89 -27 207 61 120
88 272 178 364 214 34 13 110 36 170 50 318 76 570 75 867 -3 197 -52 348
-127 534 -264 97 -71 117 -79 167 -66 51 14 85 61 85 117 0 43 -4 50 -52 95
-69 65 -240 178 -353 233 -205 100 -445 166 -669 184 -142 11 -158 11 -296 -1z"/>
<path d="M3015 5384 c-113 -17 -178 -36 -285 -82 -141 -59 -339 -192 -366
-245 -35 -67 10 -159 84 -173 41 -8 67 3 141 60 142 108 283 171 450 200 301
51 620 -23 849 -199 82 -63 113 -73 164 -52 66 28 94 105 61 165 -41 75 -334
248 -493 292 -180 50 -419 63 -605 34z"/>
<path d="M3135 4924 c-181 -30 -409 -149 -435 -230 -18 -52 -5 -97 37 -134 32
-28 41 -32 80 -27 29 3 57 15 81 34 102 81 202 116 337 117 122 0 209 -27 301
-94 38 -28 79 -53 92 -56 94 -25 178 76 135 163 -34 70 -189 166 -328 203 -78
20 -240 33 -300 24z"/>
<path d="M3174 4446 c-38 -12 -270 -187 -594 -446 -52 -42 -156 -123 -230
-181 -74 -58 -261 -204 -415 -324 -154 -120 -368 -287 -475 -370 -511 -397
-650 -507 -669 -531 -25 -32 -28 -100 -5 -132 21 -30 66 -52 106 -52 34 0 42
5 258 174 l95 75 5 -1067 5 -1067 26 -55 c41 -85 90 -135 177 -177 l76 -38
1692 -3 1693 -2 56 21 c68 25 128 70 172 127 66 87 63 35 63 1209 0 585 2
1063 5 1063 3 0 70 -51 149 -114 166 -132 173 -136 221 -136 29 0 45 8 71 34
29 29 34 41 34 79 0 30 -7 53 -21 71 -11 14 -120 104 -242 199 -239 187 -713
557 -867 677 -52 41 -180 141 -285 223 -104 82 -235 184 -290 227 -467 366
-634 494 -662 506 -49 21 -104 25 -149 10z m274 -408 c114 -89 295 -230 402
-313 373 -289 776 -602 960 -746 l185 -145 3 -1115 c2 -740 -1 -1126 -7 -1150
-13 -42 -43 -72 -90 -88 -24 -8 -478 -11 -1669 -11 l-1636 0 -45 22 c-88 44
-81 -56 -81 1214 l0 1120 168 130 c92 72 343 267 557 434 782 610 1039 810
1043 810 2 0 96 -73 210 -162z"/>
<path d="M3163 3540 c-110 -71 -314 -180 -438 -235 -169 -74 -274 -110 -475
-161 -149 -37 -179 -48 -199 -71 l-24 -27 6 -366 c7 -381 13 -469 48 -634 33
-160 66 -262 123 -381 87 -183 182 -311 357 -480 163 -158 332 -276 549 -385
124 -62 130 -62 268 8 388 195 712 499 874 817 149 293 187 515 189 1090 0
165 0 310 0 321 -2 50 -28 62 -231 112 -297 74 -597 203 -867 373 -52 32 -99
59 -106 59 -7 0 -40 -18 -74 -40z m204 -242 c309 -173 539 -263 876 -342 l28
-7 -5 -297 c-8 -503 -45 -707 -174 -954 -66 -128 -128 -213 -237 -327 -141
-148 -314 -280 -532 -405 l-83 -48 -73 40 c-279 150 -557 388 -704 603 -134
195 -218 454 -243 749 -11 121 -16 627 -7 636 2 3 62 20 133 39 263 70 504
168 739 300 83 46 151 84 152 84 1 1 60 -31 130 -71z"/>
<path d="M3151 2969 c-72 -14 -167 -64 -215 -114 -91 -94 -131 -222 -124 -401
3 -82 2 -84 -20 -84 -40 0 -89 -27 -118 -66 l-29 -37 0 -321 c0 -310 1 -322
22 -361 28 -52 68 -89 123 -114 43 -20 64 -21 450 -21 371 0 408 2 445 19 59
26 97 63 125 117 l25 49 0 316 0 316 -29 37 c-30 40 -78 66 -119 66 l-25 0 0
129 c0 153 -5 178 -44 253 -87 165 -279 254 -467 217z m187 -185 c47 -19 98
-68 125 -119 17 -33 22 -63 25 -167 l4 -128 -251 0 -251 0 0 108 c0 66 6 128
15 158 17 58 72 119 130 145 50 23 152 25 203 3z m-22 -669 c54 -35 80 -116
53 -168 -7 -12 -23 -35 -35 -50 -22 -26 -24 -38 -24 -128 l0 -99 -74 0 -74 0
-1 106 c-1 97 -3 108 -25 135 -61 72 -34 181 54 218 33 14 94 7 126 -14z"/>
</g>
</svg>
